<?xml version="1.0" standalone="no"?>
<!DOCTYPE svg PUBLIC "-//W3C//DTD SVG 20010904//EN"
 "http://www.w3.org/TR/2001/REC-SVG-20010904/DTD/svg10.dtd">
<svg version="1.0" xmlns="http://www.w3.org/2000/svg"
 width="110.000000pt" height="110.000000pt" viewBox="0 0 110.000000 110.000000"
 preserveAspectRatio="xMidYMid meet">
<metadata>
Created by potrace 1.14, written by Peter Selinger 2001-2017
</metadata>
<g transform="translate(0.000000,110.000000) scale(0.100000,-0.100000)"
fill="#000000" stroke="none">
<path d="M251 934 c-79 -44 -153 -99 -144 -108 3 -3 2 -6 -4 -6 -6 0 -14 -11
-17 -25 -4 -14 -11 -25 -16 -25 -15 0 -33 -78 -36 -150 -1 -36 -3 -65 -4 -65
-2 0 -6 -18 -15 -57 -3 -16 -1 -28 5 -28 5 0 10 -13 10 -30 0 -16 5 -30 11
-30 6 0 8 -7 5 -16 -3 -8 -2 -13 3 -10 7 5 22 -27 20 -42 0 -2 12 -15 28 -29
15 -14 21 -22 13 -17 -18 9 50 -55 81 -76 12 -8 27 -19 33 -25 23 -20 73 -44
80 -38 3 3 6 1 6 -6 0 -8 7 -11 15 -7 8 3 15 0 15 -7 0 -8 3 -8 9 2 6 9 11 10
15 3 4 -6 14 -8 23 -5 12 5 14 3 8 -8 -8 -12 -6 -12 9 0 15 13 19 13 27 0 7
-12 13 -7 11 12 -1 3 5 6 13 6 8 0 11 -5 8 -10 -4 -6 -1 -7 8 -1 8 5 16 9 19
9 37 6 79 21 94 34 15 13 18 13 11 1 -7 -12 -6 -13 7 -3 8 7 19 9 23 5 5 -4 5
-1 1 5 -4 8 -2 13 6 14 7 1 18 2 25 3 6 0 23 11 37 23 14 13 31 23 36 23 6 0
10 5 10 12 0 6 3 8 7 5 3 -4 16 4 28 18 13 13 25 22 28 19 2 -3 8 7 11 21 4
15 11 23 18 19 6 -4 9 -1 6 7 -3 8 2 20 11 27 9 8 11 11 4 8 -7 -4 -10 1 -8
11 2 10 4 26 4 37 1 16 3 17 19 5 16 -13 16 -12 2 5 -16 21 -23 49 -9 40 5 -3
9 0 9 6 0 6 6 8 13 5 6 -4 5 -1 -3 7 -18 15 -15 44 4 51 8 3 13 -3 13 -16 1
-39 3 -47 13 -47 6 0 10 13 10 29 0 16 7 35 17 42 15 13 13 15 -18 19 -23 4
-33 10 -30 20 8 32 5 55 -6 52 -7 -1 -13 2 -13 8 0 5 -5 10 -11 10 -9 0 -48
33 -41 34 14 3 -18 41 -47 56 -20 11 -51 33 -70 50 -18 16 -36 30 -40 30 -3 0
-24 17 -46 38 -76 70 -134 92 -242 92 -48 0 -69 -7 -122 -36z"/>
<path d="M957 535 c-14 -39 -14 -45 -1 -45 8 0 14 5 14 10 0 14 28 12 33 -2 2
-7 7 -10 11 -7 12 11 -14 89 -28 89 -8 0 -21 -20 -29 -45z"/>
<path d="M1037 573 c-2 -5 -4 -24 -3 -43 1 -32 4 -35 34 -38 23 -2 32 1 32 11
0 8 -8 14 -17 13 -14 -1 -18 7 -18 32 0 29 -17 44 -28 25z"/>
</g>
</svg>
